<?xml version="1.0" encoding="UTF-8" standalone="no"?>
<!-- Created with Inkscape (http://www.inkscape.org/) -->

<svg
 xmlns:svg="http://www.w3.org/2000/svg"
 xmlns="http://www.w3.org/2000/svg"
 version="1.1"
 width="720"
 height="720"
 id="svg2">
<defs
 id="defs4" />
<g
 transform="matrix(1.266382946859808,0,0,1.266382946859808,-118.8175514067734,-109.1719343291319)"
 id="g4142">
<path
 d="m 378.0985464105276,121.7419538942976 c -68.6842547639032,0 -124.3446070548587,55.7110637946482 -124.3446070548587,124.3953185585516 0,68.6842547639032 55.6603522909555,124.3446070548587 124.3446070548587,124.3446070548587 C 310.4577598091699,358.5549838335447 265.3064698912938,294.0512841176897 277.2333655654567,226.410497516332 287.8784835795153,166.0390332555166 340.39116688927,123.6195282070104 399.6509354799872,123.6689910346257 c -7.0012868805976,-1.2234458266579 -14.2007996420315,-1.9270371403281 -21.5523890694596,-1.9270371403281 z"
 id="path3948"
 style="fill:#ff0000;fill-opacity:1;stroke:none" />
<path
 d="M 421.2917812063041,125.5208722799414 C 353.6509946049465,113.5939766057785 289.162123429596,158.7933454156821 277.235227755433,226.4341320170397 c -11.9268956741629,67.6407866013576 33.2225320537371,132.1208518165051 100.8633186550946,144.0477474906681 -64.5420873658193,-23.491398658567 -97.8064778270125,-94.855581450263 -74.3150791684456,-159.3976688160823 20.9667895039496,-57.6057807205597 80.0477569080771,-90.2621064101296 138.3986473280471,-79.923044209266 -6.6824724628018,-2.4206196436223 -13.6504310987311,-4.3637040953896 -20.8903333638248,-5.6402942024179 z"
 id="path4120"
 style="fill:#ff8000;fill-opacity:1;stroke:none" />
<path
 d="m 463.1726114196423,136.7428069139503 c -64.5420873658192,-23.4913986585669 -135.9000157078451,9.8229152172873 -159.3914143664121,74.3650025831066 -23.4913986585669,64.5420873658193 9.7752619914782,135.8826713520839 74.3173493572974,159.374070010651 -59.4823094655427,-34.3421273819518 -79.8490787984833,-110.3984286673818 -45.5069514165317,-169.8807381329244 30.6513957044705,-53.0897746830414 94.5055019048084,-74.9906750824955 150.1745518755957,-54.6761606815391 -6.1606145007181,-3.5442441576078 -12.6853011139472,-6.6677821096534 -19.5935354499491,-9.1821737792938 z"
 id="path4122"
 style="fill:#ffff00;fill-opacity:1;stroke:none" />
<path
 d="m 502.4685092172327,155.0667849910429 c -59.4823094655425,-34.3421273819516 -135.5411204304255,-13.9251070094084 -169.8832478123772,45.5572024561342 -34.3421273819515,59.4823094655424 -13.9690244598704,135.5157646785791 45.5132850056721,169.8578920605308 -52.6151916916564,-44.1493879427908 -59.4655059162457,-122.5868754937425 -15.316117973455,-175.2020671853988 39.4046747568656,-46.9606627065011 106.0917450482535,-57.4406900395924 157.3874786563942,-27.7679696789759 -5.4515693844517,-4.5601786063386 -11.3347346738882,-8.769262938576 -17.701397876234,-12.44505765229 z"
 id="path4124"
 style="fill:#80ff00;fill-opacity:1;stroke:none" />
<path
 d="m 537.985488629179,179.9360417097267 c -52.6151916916562,-44.1493879427906 -131.0638767958436,-37.2500219060673 -175.2132647386341,15.3651697855889 -44.1493879427905,52.6151916916563 -37.2888691716733,131.0312800696015 15.3263225199829,175.1806680123921 -44.1493879427907,-52.6151916916563 -37.2751037277408,-131.050582140178 15.3400879639156,-175.1999700829686 46.9606627065011,-39.4046747568658 114.4544442034208,-38.1453986962279 159.8182665401247,-0.016062968988 -4.5768810910654,-5.4375543356775 -9.6397680564156,-10.6042941505711 -15.2714122853889,-15.3298047460244 z"
 id="path4126"
 style="fill:#00ff00;fill-opacity:1;stroke:none" />
<path
 d="m 568.6443842085084,210.594937289056 c -44.1493879427908,-52.6151916916562 -122.6043235863418,-59.443113736531 -175.2195152779981,-15.2937257937404 -52.6151916916559,44.1493879427907 -59.4757104627731,122.565476320736 -15.3263225199826,175.1806680123922 -34.3421273819517,-59.4823094655427 -13.9521163745812,-135.5323831630786 45.5301930909615,-169.8745105450301 53.0897746830413,-30.6513957044706 119.3395029882104,-17.6910787159816 157.3930572669793,27.7363318061847 -3.5631265817409,-6.1497127280621 -7.6519019645067,-12.1171192508329 -12.3774125599598,-17.7487634798063 z"
 id="path4128"
 style="fill:#00ff80;fill-opacity:1;stroke:none" />
<path
 d="M 593.5136409271923,246.1119167010024 C 559.1715135452407,186.6296072354599 483.094140881742,166.2818600652253 423.6118314161996,200.6239874471769 c -59.4823094655423,34.3421273819517 -79.8554123876234,110.3755825949884 -45.5132850056719,169.8578920605309 -23.491398658567,-64.5420873658194 9.7947989745086,-135.896101306264 74.336886340328,-159.3874999648308 57.6057807205598,-20.9667895039497 120.5984913634056,3.300775738932 150.1855395935065,54.6459721746876 -2.4411082742594,-6.6750152111094 -5.4315367034559,-13.2617718142164 -9.1073314171695,-19.628435016562 z"
 id="path4130"
 style="fill:#00ffff;fill-opacity:1;stroke:none" />
<path
 d="M 611.8376190042846,285.4078144985928 C 588.3462203457179,220.8657271327736 516.957983133644,187.6164108384899 452.415895767825,211.1078094970568 387.873808402006,234.5992081556238 354.607147751961,305.9397921418886 378.0985464105277,370.4818795077079 366.1716507363648,302.84109290635 411.3426507236932,238.351194329704 478.9834373250508,226.4242986555412 c 60.3714642608156,-10.6451180140588 118.1931556043045,24.1923377932911 138.414710297035,79.8952223308587 -1.2449181271252,-6.9975007346877 -3.0461369481608,-14.0034721518053 -5.5605286178004,-20.9117064878069 z"
 id="path4132"
 style="fill:#0080ff;fill-opacity:1;stroke:none" />
<path
 d="m 623.0595536382935,327.2886447119309 c -11.926895674163,-67.6407866013576 -76.4569019713141,-112.7814083690545 -144.0976885726713,-100.8545126948914 -67.6407866013575,11.926895674163 -112.7902143292574,76.4069608893107 -100.8633186550946,144.0477474906682 0,-68.6842547639033 55.6833043645952,-124.3505450419629 124.3675591284984,-124.3505450419627 61.3027914089414,-2e-13 112.1965806207898,44.3488279057148 122.4382200694103,102.7168965854399 -0.010901772657,-7.1073707393488 -0.5681818631145,-14.3196840741604 -1.8447719701428,-21.5595863392537 z"
 id="path4134"
 style="fill:#0000ff;fill-opacity:1;stroke:none" />
<path
 d="m 626.8384720239373,370.4818795077074 c 0,-68.6842547639032 -55.7110637946482,-124.3446070548586 -124.3953185585511,-124.3446070548584 -68.684254763903,9e-14 -124.3446070548585,55.6603522909556 -124.3446070548586,124.3446070548588 11.926895674163,-67.6407866013576 76.4305953900182,-112.7920765192339 144.0713819913753,-100.8651808450707 60.3714642608154,10.6451180140585 102.7909693093211,63.1578013238131 102.7415064817062,122.4175699145303 1.2234458266571,-7.001286880598 1.9270371403278,-14.2007996420319 1.927037140328,-21.5523890694595 z"
 id="path4136"
 style="fill:#8000ff;fill-opacity:1;stroke:none" />
<path
 d="m 623.0595536382934,413.6751143034839 c 11.926895674163,-67.6407866013576 -33.2724731357405,-132.129657776708 -100.9132597370981,-144.0565534508707 -67.6407866013569,-11.9268956741629 -132.1208518165046,33.2225320537371 -144.0477474906678,100.8633186550947 23.4913986585668,-64.5420873658193 94.855581450263,-97.8064778270126 159.3976688160817,-74.3150791684456 57.6057807205599,20.9667895039496 90.2621064101296,80.0477569080768 79.9230442092661,138.3986473280469 2.4206196436213,-6.6824724628023 4.3637040953896,-13.6504310987316 5.6402942024182,-20.8903333638247 z"
 id="path4138"
 style="fill:#ff00ff;fill-opacity:1;stroke:none" />
<path
 d="m 611.8376190042845,455.555944516822 c 23.4913986585668,-64.5420873658192 -9.8229152172869,-135.900015707845 -74.3650025831064,-159.3914143664117 -64.5420873658184,-23.4913986585668 -135.8826713520834,9.7752619914783 -159.3740700106504,74.3173493572976 34.3421273819518,-59.4823094655426 110.3984286673818,-79.8490787984836 169.880738132924,-45.5069514165318 53.089774683041,30.6513957044705 74.9906750824953,94.505501904808 54.6761606815387,150.1745518755953 3.5442441576072,-6.1606145007185 6.6677821096537,-12.6853011139476 9.1821737792941,-19.5935354499487 z"
 id="path4140"
 style="fill:#ff0080;fill-opacity:1;stroke:none" />
</g>
<g
 transform="matrix(-0.6331914734299034,1.096719802899993,-1.096719802899993,-0.6331914734299034,1005.723589575099,179.9178038684374)"
 id="g4156">
<path
 d="m 378.0985464105276,121.7419538942976 c -68.6842547639032,0 -124.3446070548587,55.7110637946482 -124.3446070548587,124.3953185585516 0,68.6842547639032 55.6603522909555,124.3446070548587 124.3446070548587,124.3446070548587 C 310.4577598091699,358.5549838335447 265.3064698912938,294.0512841176897 277.2333655654567,226.410497516332 287.8784835795153,166.0390332555166 340.39116688927,123.6195282070104 399.6509354799872,123.6689910346257 c -7.0012868805976,-1.2234458266579 -14.2007996420315,-1.9270371403281 -21.5523890694596,-1.9270371403281 z"
 id="path4158"
 style="fill:#ff0000;fill-opacity:1;stroke:none" />
<path
 d="M 421.2917812063041,125.5208722799414 C 353.6509946049465,113.5939766057785 289.162123429596,158.7933454156821 277.235227755433,226.4341320170397 c -11.9268956741629,67.6407866013576 33.2225320537371,132.1208518165051 100.8633186550946,144.0477474906681 -64.5420873658193,-23.491398658567 -97.8064778270125,-94.855581450263 -74.3150791684456,-159.3976688160823 20.9667895039496,-57.6057807205597 80.0477569080771,-90.2621064101296 138.3986473280471,-79.923044209266 -6.6824724628018,-2.4206196436223 -13.6504310987311,-4.3637040953896 -20.8903333638248,-5.6402942024179 z"
 id="path4160"
 style="fill:#ff8000;fill-opacity:1;stroke:none" />
<path
 d="m 463.1726114196423,136.7428069139503 c -64.5420873658192,-23.4913986585669 -135.9000157078451,9.8229152172873 -159.3914143664121,74.3650025831066 -23.4913986585669,64.5420873658193 9.7752619914782,135.8826713520839 74.3173493572974,159.374070010651 -59.4823094655427,-34.3421273819518 -79.8490787984833,-110.3984286673818 -45.5069514165317,-169.8807381329244 30.6513957044705,-53.0897746830414 94.5055019048084,-74.9906750824955 150.1745518755957,-54.6761606815391 -6.1606145007181,-3.5442441576078 -12.6853011139472,-6.6677821096534 -19.5935354499491,-9.1821737792938 z"
 id="path4162"
 style="fill:#ffff00;fill-opacity:1;stroke:none" />
<path
 d="m 502.4685092172327,155.0667849910429 c -59.4823094655425,-34.3421273819516 -135.5411204304255,-13.9251070094084 -169.8832478123772,45.5572024561342 -34.3421273819515,59.4823094655424 -13.9690244598704,135.5157646785791 45.5132850056721,169.8578920605308 -52.6151916916564,-44.1493879427908 -59.4655059162457,-122.5868754937425 -15.316117973455,-175.2020671853988 39.4046747568656,-46.9606627065011 106.0917450482535,-57.4406900395924 157.3874786563942,-27.7679696789759 -5.4515693844517,-4.5601786063386 -11.3347346738882,-8.769262938576 -17.701397876234,-12.44505765229 z"
 id="path4164"
 style="fill:#80ff00;fill-opacity:1;stroke:none" />
<path
 d="m 537.985488629179,179.9360417097267 c -52.6151916916562,-44.1493879427906 -131.0638767958436,-37.2500219060673 -175.2132647386341,15.3651697855889 -44.1493879427905,52.6151916916563 -37.2888691716733,131.0312800696015 15.3263225199829,175.1806680123921 -44.1493879427907,-52.6151916916563 -37.2751037277408,-131.050582140178 15.3400879639156,-175.1999700829686 46.9606627065011,-39.4046747568658 114.4544442034208,-38.1453986962279 159.8182665401247,-0.016062968988 -4.5768810910654,-5.4375543356775 -9.6397680564156,-10.6042941505711 -15.2714122853889,-15.3298047460244 z"
 id="path4166"
 style="fill:#00ff00;fill-opacity:1;stroke:none" />
<path
 d="m 568.6443842085084,210.594937289056 c -44.1493879427908,-52.6151916916562 -122.6043235863418,-59.443113736531 -175.2195152779981,-15.2937257937404 -52.6151916916559,44.1493879427907 -59.4757104627731,122.565476320736 -15.3263225199826,175.1806680123922 -34.3421273819517,-59.4823094655427 -13.9521163745812,-135.5323831630786 45.5301930909615,-169.8745105450301 53.0897746830413,-30.6513957044706 119.3395029882104,-17.6910787159816 157.3930572669793,27.7363318061847 -3.5631265817409,-6.1497127280621 -7.6519019645067,-12.1171192508329 -12.3774125599598,-17.7487634798063 z"
 id="path4168"
 style="fill:#00ff80;fill-opacity:1;stroke:none" />
<path
 d="M 593.5136409271923,246.1119167010024 C 559.1715135452407,186.6296072354599 483.094140881742,166.2818600652253 423.6118314161996,200.6239874471769 c -59.4823094655423,34.3421273819517 -79.8554123876234,110.3755825949884 -45.5132850056719,169.8578920605309 -23.491398658567,-64.5420873658194 9.7947989745086,-135.896101306264 74.336886340328,-159.3874999648308 57.6057807205598,-20.9667895039497 120.5984913634056,3.300775738932 150.1855395935065,54.6459721746876 -2.4411082742594,-6.6750152111094 -5.4315367034559,-13.2617718142164 -9.1073314171695,-19.628435016562 z"
 id="path4170"
 style="fill:#00ffff;fill-opacity:1;stroke:none" />
<path
 d="M 611.8376190042846,285.4078144985928 C 588.3462203457179,220.8657271327736 516.957983133644,187.6164108384899 452.415895767825,211.1078094970568 387.873808402006,234.5992081556238 354.607147751961,305.9397921418886 378.0985464105277,370.4818795077079 366.1716507363648,302.84109290635 411.3426507236932,238.351194329704 478.9834373250508,226.4242986555412 c 60.3714642608156,-10.6451180140588 118.1931556043045,24.1923377932911 138.414710297035,79.8952223308587 -1.2449181271252,-6.9975007346877 -3.0461369481608,-14.0034721518053 -5.5605286178004,-20.9117064878069 z"
 id="path4172"
 style="fill:#0080ff;fill-opacity:1;stroke:none" />
<path
 d="m 623.0595536382935,327.2886447119309 c -11.926895674163,-67.6407866013576 -76.4569019713141,-112.7814083690545 -144.0976885726713,-100.8545126948914 -67.6407866013575,11.926895674163 -112.7902143292574,76.4069608893107 -100.8633186550946,144.0477474906682 0,-68.6842547639033 55.6833043645952,-124.3505450419629 124.3675591284984,-124.3505450419627 61.3027914089414,-2e-13 112.1965806207898,44.3488279057148 122.4382200694103,102.7168965854399 -0.010901772657,-7.1073707393488 -0.5681818631145,-14.3196840741604 -1.8447719701428,-21.5595863392537 z"
 id="path4174"
 style="fill:#0000ff;fill-opacity:1;stroke:none" />
<path
 d="m 626.8384720239373,370.4818795077074 c 0,-68.6842547639032 -55.7110637946482,-124.3446070548586 -124.3953185585511,-124.3446070548584 -68.684254763903,9e-14 -124.3446070548585,55.6603522909556 -124.3446070548586,124.3446070548588 11.926895674163,-67.6407866013576 76.4305953900182,-112.7920765192339 144.0713819913753,-100.8651808450707 60.3714642608154,10.6451180140585 102.7909693093211,63.1578013238131 102.7415064817062,122.4175699145303 1.2234458266571,-7.001286880598 1.9270371403278,-14.2007996420319 1.927037140328,-21.5523890694595 z"
 id="path4176"
 style="fill:#8000ff;fill-opacity:1;stroke:none" />
<path
 d="m 623.0595536382934,413.6751143034839 c 11.926895674163,-67.6407866013576 -33.2724731357405,-132.129657776708 -100.9132597370981,-144.0565534508707 -67.6407866013569,-11.9268956741629 -132.1208518165046,33.2225320537371 -144.0477474906678,100.8633186550947 23.4913986585668,-64.5420873658193 94.855581450263,-97.8064778270126 159.3976688160817,-74.3150791684456 57.6057807205599,20.9667895039496 90.2621064101296,80.0477569080768 79.9230442092661,138.3986473280469 2.4206196436213,-6.6824724628023 4.3637040953896,-13.6504310987316 5.6402942024182,-20.8903333638247 z"
 id="path4178"
 style="fill:#ff00ff;fill-opacity:1;stroke:none" />
<path
 d="m 611.8376190042845,455.555944516822 c 23.4913986585668,-64.5420873658192 -9.8229152172869,-135.900015707845 -74.3650025831064,-159.3914143664117 -64.5420873658184,-23.4913986585668 -135.8826713520834,9.7752619914783 -159.3740700106504,74.3173493572976 34.3421273819518,-59.4823094655426 110.3984286673818,-79.8490787984836 169.880738132924,-45.5069514165318 53.089774683041,30.6513957044705 74.9906750824953,94.505501904808 54.6761606815387,150.1745518755953 3.5442441576072,-6.1606145007185 6.6677821096537,-12.6853011139476 9.1821737792941,-19.5935354499487 z"
 id="path4180"
 style="fill:#ff0080;fill-opacity:1;stroke:none" />
</g>
<g
 transform="matrix(-0.6331914734299044,-1.096719802899992,1.096719802899992,-0.6331914734299044,193.0939618316751,1009.254130460693)"
 id="g4182">
<path
 d="m 378.0985464105276,121.7419538942976 c -68.6842547639032,0 -124.3446070548587,55.7110637946482 -124.3446070548587,124.3953185585516 0,68.6842547639032 55.6603522909555,124.3446070548587 124.3446070548587,124.3446070548587 C 310.4577598091699,358.5549838335447 265.3064698912938,294.0512841176897 277.2333655654567,226.410497516332 287.8784835795153,166.0390332555166 340.39116688927,123.6195282070104 399.6509354799872,123.6689910346257 c -7.0012868805976,-1.2234458266579 -14.2007996420315,-1.9270371403281 -21.5523890694596,-1.9270371403281 z"
 id="path4184"
 style="fill:#ff0000;fill-opacity:1;stroke:none" />
<path
 d="M 421.2917812063041,125.5208722799414 C 353.6509946049465,113.5939766057785 289.162123429596,158.7933454156821 277.235227755433,226.4341320170397 c -11.9268956741629,67.6407866013576 33.2225320537371,132.1208518165051 100.8633186550946,144.0477474906681 -64.5420873658193,-23.491398658567 -97.8064778270125,-94.855581450263 -74.3150791684456,-159.3976688160823 20.9667895039496,-57.6057807205597 80.0477569080771,-90.2621064101296 138.3986473280471,-79.923044209266 -6.6824724628018,-2.4206196436223 -13.6504310987311,-4.3637040953896 -20.8903333638248,-5.6402942024179 z"
 id="path4186"
 style="fill:#ff8000;fill-opacity:1;stroke:none" />
<path
 d="m 463.1726114196423,136.7428069139503 c -64.5420873658192,-23.4913986585669 -135.9000157078451,9.8229152172873 -159.3914143664121,74.3650025831066 -23.4913986585669,64.5420873658193 9.7752619914782,135.8826713520839 74.3173493572974,159.374070010651 -59.4823094655427,-34.3421273819518 -79.8490787984833,-110.3984286673818 -45.5069514165317,-169.8807381329244 30.6513957044705,-53.0897746830414 94.5055019048084,-74.9906750824955 150.1745518755957,-54.6761606815391 -6.1606145007181,-3.5442441576078 -12.6853011139472,-6.6677821096534 -19.5935354499491,-9.1821737792938 z"
 id="path4188"
 style="fill:#ffff00;fill-opacity:1;stroke:none" />
<path
 d="m 502.4685092172327,155.0667849910429 c -59.4823094655425,-34.3421273819516 -135.5411204304255,-13.9251070094084 -169.8832478123772,45.5572024561342 -34.3421273819515,59.4823094655424 -13.9690244598704,135.5157646785791 45.5132850056721,169.8578920605308 -52.6151916916564,-44.1493879427908 -59.4655059162457,-122.5868754937425 -15.316117973455,-175.2020671853988 39.4046747568656,-46.9606627065011 106.0917450482535,-57.4406900395924 157.3874786563942,-27.7679696789759 -5.4515693844517,-4.5601786063386 -11.3347346738882,-8.769262938576 -17.701397876234,-12.44505765229 z"
 id="path4190"
 style="fill:#80ff00;fill-opacity:1;stroke:none" />
<path
 d="m 537.985488629179,179.9360417097267 c -52.6151916916562,-44.1493879427906 -131.0638767958436,-37.2500219060673 -175.2132647386341,15.3651697855889 -44.1493879427905,52.6151916916563 -37.2888691716733,131.0312800696015 15.3263225199829,175.1806680123921 -44.1493879427907,-52.6151916916563 -37.2751037277408,-131.050582140178 15.3400879639156,-175.1999700829686 46.9606627065011,-39.4046747568658 114.4544442034208,-38.1453986962279 159.8182665401247,-0.016062968988 -4.5768810910654,-5.4375543356775 -9.6397680564156,-10.6042941505711 -15.2714122853889,-15.3298047460244 z"
 id="path4192"
 style="fill:#00ff00;fill-opacity:1;stroke:none" />
<path
 d="m 568.6443842085084,210.594937289056 c -44.1493879427908,-52.6151916916562 -122.6043235863418,-59.443113736531 -175.2195152779981,-15.2937257937404 -52.6151916916559,44.1493879427907 -59.4757104627731,122.565476320736 -15.3263225199826,175.1806680123922 -34.3421273819517,-59.4823094655427 -13.9521163745812,-135.5323831630786 45.5301930909615,-169.8745105450301 53.0897746830413,-30.6513957044706 119.3395029882104,-17.6910787159816 157.3930572669793,27.7363318061847 -3.5631265817409,-6.1497127280621 -7.6519019645067,-12.1171192508329 -12.3774125599598,-17.7487634798063 z"
 id="path4194"
 style="fill:#00ff80;fill-opacity:1;stroke:none" />
<path
 d="M 593.5136409271923,246.1119167010024 C 559.1715135452407,186.6296072354599 483.094140881742,166.2818600652253 423.6118314161996,200.6239874471769 c -59.4823094655423,34.3421273819517 -79.8554123876234,110.3755825949884 -45.5132850056719,169.8578920605309 -23.491398658567,-64.5420873658194 9.7947989745086,-135.896101306264 74.336886340328,-159.3874999648308 57.6057807205598,-20.9667895039497 120.5984913634056,3.300775738932 150.1855395935065,54.6459721746876 -2.4411082742594,-6.6750152111094 -5.4315367034559,-13.2617718142164 -9.1073314171695,-19.628435016562 z"
 id="path4196"
 style="fill:#00ffff;fill-opacity:1;stroke:none" />
<path
 d="M 611.8376190042846,285.4078144985928 C 588.3462203457179,220.8657271327736 516.957983133644,187.6164108384899 452.415895767825,211.1078094970568 387.873808402006,234.5992081556238 354.607147751961,305.9397921418886 378.0985464105277,370.4818795077079 366.1716507363648,302.84109290635 411.3426507236932,238.351194329704 478.9834373250508,226.4242986555412 c 60.3714642608156,-10.6451180140588 118.1931556043045,24.1923377932911 138.414710297035,79.8952223308587 -1.2449181271252,-6.9975007346877 -3.0461369481608,-14.0034721518053 -5.5605286178004,-20.9117064878069 z"
 id="path4198"
 style="fill:#0080ff;fill-opacity:1;stroke:none" />
<path
 d="m 623.0595536382935,327.2886447119309 c -11.926895674163,-67.6407866013576 -76.4569019713141,-112.7814083690545 -144.0976885726713,-100.8545126948914 -67.6407866013575,11.926895674163 -112.7902143292574,76.4069608893107 -100.8633186550946,144.0477474906682 0,-68.6842547639033 55.6833043645952,-124.3505450419629 124.3675591284984,-124.3505450419627 61.3027914089414,-2e-13 112.1965806207898,44.3488279057148 122.4382200694103,102.7168965854399 -0.010901772657,-7.1073707393488 -0.5681818631145,-14.3196840741604 -1.8447719701428,-21.5595863392537 z"
 id="path4200"
 style="fill:#0000ff;fill-opacity:1;stroke:none" />
<path
 d="m 626.8384720239373,370.4818795077074 c 0,-68.6842547639032 -55.7110637946482,-124.3446070548586 -124.3953185585511,-124.3446070548584 -68.684254763903,9e-14 -124.3446070548585,55.6603522909556 -124.3446070548586,124.3446070548588 11.926895674163,-67.6407866013576 76.4305953900182,-112.7920765192339 144.0713819913753,-100.8651808450707 60.3714642608154,10.6451180140585 102.7909693093211,63.1578013238131 102.7415064817062,122.4175699145303 1.2234458266571,-7.001286880598 1.9270371403278,-14.2007996420319 1.927037140328,-21.5523890694595 z"
 id="path4202"
 style="fill:#8000ff;fill-opacity:1;stroke:none" />
<path
 d="m 623.0595536382934,413.6751143034839 c 11.926895674163,-67.6407866013576 -33.2724731357405,-132.129657776708 -100.9132597370981,-144.0565534508707 -67.6407866013569,-11.9268956741629 -132.1208518165046,33.2225320537371 -144.0477474906678,100.8633186550947 23.4913986585668,-64.5420873658193 94.855581450263,-97.8064778270126 159.3976688160817,-74.3150791684456 57.6057807205599,20.9667895039496 90.2621064101296,80.0477569080768 79.9230442092661,138.3986473280469 2.4206196436213,-6.6824724628023 4.3637040953896,-13.6504310987316 5.6402942024182,-20.8903333638247 z"
 id="path4204"
 style="fill:#ff00ff;fill-opacity:1;stroke:none" />
<path
 d="m 611.8376190042845,455.555944516822 c 23.4913986585668,-64.5420873658192 -9.8229152172869,-135.900015707845 -74.3650025831064,-159.3914143664117 -64.5420873658184,-23.4913986585668 -135.8826713520834,9.7752619914783 -159.3740700106504,74.3173493572976 34.3421273819518,-59.4823094655426 110.3984286673818,-79.8490787984836 169.880738132924,-45.5069514165318 53.089774683041,30.6513957044705 74.9906750824953,94.505501904808 54.6761606815387,150.1745518755953 3.5442441576072,-6.1606145007185 6.6677821096537,-12.6853011139476 9.1821737792941,-19.5935354499487 z"
 id="path4206"
 style="fill:#ff0080;fill-opacity:1;stroke:none" />
</g>
</svg>
