<?xml version="1.0" encoding="UTF-8" standalone="no"?>
<svg
   xmlns:dc="http://purl.org/dc/elements/1.1/"
   xmlns:cc="http://creativecommons.org/ns#"
   xmlns:rdf="http://www.w3.org/1999/02/22-rdf-syntax-ns#"
   xmlns:svg="http://www.w3.org/2000/svg"
   xmlns="http://www.w3.org/2000/svg"
   id="svg2"
   height="1500"
   width="1500"
   version="1.1">
  <metadata
     id="metadata3379">
    <rdf:RDF>
      <cc:Work
         rdf:about="">
        <dc:format>image/svg+xml</dc:format>
        <dc:type
           rdf:resource="http://purl.org/dc/dcmitype/StillImage" />
        <dc:title></dc:title>
      </cc:Work>
    </rdf:RDF>
  </metadata>
  <defs
     id="defs4" />
  <g
     id="g4142"
     transform="matrix(3.0147324,0,0,3.0166925,-388.86591,-367.62994)">
    <path
       style="fill:#ff0000;fill-opacity:1;stroke:none"
       id="path3948"
       d="m 378.09855,121.74195 c -68.68426,0 -124.34461,55.71107 -124.34461,124.39532 0,68.68426 55.66035,124.34461 124.34461,124.34461 -67.64079,-11.9269 -112.79208,-76.4306 -100.86518,-144.07138 10.64511,-60.37147 63.1578,-102.79097 122.41757,-102.74151 -7.00129,-1.22344 -14.2008,-1.92704 -21.55239,-1.92704 z" />
    <path
       style="fill:#ff8000;fill-opacity:1;stroke:none"
       id="path4120"
       d="m 421.29178,125.52087 c -67.64079,-11.92689 -132.12966,33.27248 -144.05655,100.91326 -11.9269,67.64079 33.22253,132.12085 100.86332,144.04775 -64.54209,-23.4914 -97.80648,-94.85558 -74.31508,-159.39767 20.96679,-57.60578 80.04775,-90.26211 138.39864,-79.92304 -6.68247,-2.42062 -13.65043,-4.36371 -20.89033,-5.6403 z" />
    <path
       style="fill:#ffff00;fill-opacity:1;stroke:none"
       id="path4122"
       d="m 463.17261,136.74281 c -64.54209,-23.4914 -135.90001,9.82291 -159.39141,74.365 -23.4914,64.54209 9.77526,135.88267 74.31735,159.37407 -59.48231,-34.34213 -79.84908,-110.39843 -45.50696,-169.88074 30.6514,-53.08977 94.50551,-74.99067 150.17456,-54.67616 -6.16062,-3.54424 -12.6853,-6.66778 -19.59354,-9.18217 z" />
    <path
       style="fill:#80ff00;fill-opacity:1;stroke:none"
       id="path4124"
       d="M 502.46851,155.06678 C 442.9862,120.72466 366.92739,141.14168 332.58526,200.62399 298.24313,260.1063 318.61624,336.13975 378.09855,370.48188 325.48335,326.33249 318.63304,247.895 362.78243,195.27981 c 39.40467,-46.96066 106.09174,-57.44069 157.38748,-27.76797 -5.45157,-4.56018 -11.33474,-8.76926 -17.7014,-12.44506 z" />
    <path
       style="fill:#00ff00;fill-opacity:1;stroke:none"
       id="path4126"
       d="M 537.98549,179.93604 C 485.3703,135.78665 406.92161,142.68602 362.77222,195.30121 318.62284,247.9164 325.48335,326.33249 378.09855,370.48188 333.94916,317.86669 340.82344,239.4313 393.43863,195.28191 c 46.96067,-39.40468 114.45445,-38.1454 159.81827,-0.0161 -4.57688,-5.43756 -9.63977,-10.6043 -15.27141,-15.32981 z" />
    <path
       style="fill:#00ff80;fill-opacity:1;stroke:none"
       id="path4128"
       d="M 568.64438,210.59494 C 524.495,157.97975 446.04006,151.15182 393.42487,195.30121 340.80968,239.4506 333.94916,317.86669 378.09855,370.48188 343.75642,310.99957 364.14643,234.9495 423.62874,200.60737 c 53.08977,-30.6514 119.3395,-17.69108 157.39306,27.73633 -3.56313,-6.14971 -7.65191,-12.11712 -12.37742,-17.74876 z" />
    <path
       style="fill:#00ffff;fill-opacity:1;stroke:none"
       id="path4130"
       d="m 593.51364,246.11192 c -34.34213,-59.48231 -110.4195,-79.83006 -169.90181,-45.48793 -59.48231,34.34212 -79.85541,110.37558 -45.51328,169.85789 -23.4914,-64.54209 9.7948,-135.8961 74.33688,-159.3875 57.60578,-20.96679 120.59849,3.30078 150.18554,54.64597 -2.44111,-6.67501 -5.43153,-13.26177 -9.10733,-19.62843 z" />
    <path
       style="fill:#0080ff;fill-opacity:1;stroke:none"
       id="path4132"
       d="m 611.83762,285.40781 c -23.4914,-64.54208 -94.87964,-97.7914 -159.42172,-74.3 -64.54209,23.4914 -97.80875,94.83198 -74.31735,159.37407 -11.9269,-67.64079 33.2441,-132.13069 100.88489,-144.05758 60.37146,-10.64512 118.19315,24.19234 138.41471,79.89522 -1.24492,-6.9975 -3.04614,-14.00347 -5.56053,-20.91171 z" />
    <path
       style="fill:#0000ff;fill-opacity:1;stroke:none"
       id="path4134"
       d="m 623.05955,327.28864 c -11.92689,-67.64078 -76.4569,-112.7814 -144.09768,-100.85451 -67.64079,11.9269 -112.79022,76.40696 -100.86332,144.04775 0,-68.68426 55.6833,-124.35055 124.36756,-124.35055 61.30279,0 112.19658,44.34883 122.43822,102.7169 -0.0109,-7.10737 -0.56819,-14.31968 -1.84478,-21.55959 z" />
    <path
       style="fill:#8000ff;fill-opacity:1;stroke:none"
       id="path4136"
       d="m 626.83847,370.48188 c 0,-68.68426 -55.71106,-124.34461 -124.39532,-124.34461 -68.68425,0 -124.3446,55.66035 -124.3446,124.34461 11.92689,-67.64079 76.43059,-112.79208 144.07138,-100.86518 60.37146,10.64512 102.79097,63.1578 102.7415,122.41757 1.22345,-7.00129 1.92704,-14.2008 1.92704,-21.55239 z" />
    <path
       style="fill:#ff00ff;fill-opacity:1;stroke:none"
       id="path4138"
       d="m 623.05955,413.67511 c 11.9269,-67.64078 -33.27247,-132.12965 -100.91326,-144.05655 -67.64078,-11.92689 -132.12085,33.22253 -144.04774,100.86332 23.4914,-64.54209 94.85558,-97.80648 159.39767,-74.31508 57.60578,20.96679 90.2621,80.04776 79.92304,138.39865 2.42062,-6.68247 4.3637,-13.65043 5.64029,-20.89034 z" />
    <path
       style="fill:#ff0080;fill-opacity:1;stroke:none"
       id="path4140"
       d="m 611.83762,455.55594 c 23.4914,-64.54208 -9.82292,-135.90001 -74.365,-159.39141 -64.54209,-23.4914 -135.88267,9.77526 -159.37407,74.31735 34.34212,-59.48231 110.39843,-79.84908 169.88073,-45.50695 53.08978,30.65139 74.99068,94.5055 54.67617,150.17455 3.54424,-6.16061 6.66778,-12.6853 9.18217,-19.59354 z" />
  </g>
  <g
     id="g4156"
     transform="matrix(-1.5073662,2.6125325,-2.6108348,-1.5083463,2288.1999,321.02026)">
    <path
       style="fill:#ff0000;fill-opacity:1;stroke:none"
       id="path4158"
       d="m 378.09855,121.74195 c -68.68426,0 -124.34461,55.71107 -124.34461,124.39532 0,68.68426 55.66035,124.34461 124.34461,124.34461 -67.64079,-11.9269 -112.79208,-76.4306 -100.86518,-144.07138 10.64511,-60.37147 63.1578,-102.79097 122.41757,-102.74151 -7.00129,-1.22344 -14.2008,-1.92704 -21.55239,-1.92704 z" />
    <path
       style="fill:#ff8000;fill-opacity:1;stroke:none"
       id="path4160"
       d="m 421.29178,125.52087 c -67.64079,-11.92689 -132.12966,33.27248 -144.05655,100.91326 -11.9269,67.64079 33.22253,132.12085 100.86332,144.04775 -64.54209,-23.4914 -97.80648,-94.85558 -74.31508,-159.39767 20.96679,-57.60578 80.04775,-90.26211 138.39864,-79.92304 -6.68247,-2.42062 -13.65043,-4.36371 -20.89033,-5.6403 z" />
    <path
       style="fill:#ffff00;fill-opacity:1;stroke:none"
       id="path4162"
       d="m 463.17261,136.74281 c -64.54209,-23.4914 -135.90001,9.82291 -159.39141,74.365 -23.4914,64.54209 9.77526,135.88267 74.31735,159.37407 -59.48231,-34.34213 -79.84908,-110.39843 -45.50696,-169.88074 30.6514,-53.08977 94.50551,-74.99067 150.17456,-54.67616 -6.16062,-3.54424 -12.6853,-6.66778 -19.59354,-9.18217 z" />
    <path
       style="fill:#80ff00;fill-opacity:1;stroke:none"
       id="path4164"
       d="M 502.46851,155.06678 C 442.9862,120.72466 366.92739,141.14168 332.58526,200.62399 298.24313,260.1063 318.61624,336.13975 378.09855,370.48188 325.48335,326.33249 318.63304,247.895 362.78243,195.27981 c 39.40467,-46.96066 106.09174,-57.44069 157.38748,-27.76797 -5.45157,-4.56018 -11.33474,-8.76926 -17.7014,-12.44506 z" />
    <path
       style="fill:#00ff00;fill-opacity:1;stroke:none"
       id="path4166"
       d="M 537.98549,179.93604 C 485.3703,135.78665 406.92161,142.68602 362.77222,195.30121 318.62284,247.9164 325.48335,326.33249 378.09855,370.48188 333.94916,317.86669 340.82344,239.4313 393.43863,195.28191 c 46.96067,-39.40468 114.45445,-38.1454 159.81827,-0.0161 -4.57688,-5.43756 -9.63977,-10.6043 -15.27141,-15.32981 z" />
    <path
       style="fill:#00ff80;fill-opacity:1;stroke:none"
       id="path4168"
       d="M 568.64438,210.59494 C 524.495,157.97975 446.04006,151.15182 393.42487,195.30121 340.80968,239.4506 333.94916,317.86669 378.09855,370.48188 343.75642,310.99957 364.14643,234.9495 423.62874,200.60737 c 53.08977,-30.6514 119.3395,-17.69108 157.39306,27.73633 -3.56313,-6.14971 -7.65191,-12.11712 -12.37742,-17.74876 z" />
    <path
       style="fill:#00ffff;fill-opacity:1;stroke:none"
       id="path4170"
       d="m 593.51364,246.11192 c -34.34213,-59.48231 -110.4195,-79.83006 -169.90181,-45.48793 -59.48231,34.34212 -79.85541,110.37558 -45.51328,169.85789 -23.4914,-64.54209 9.7948,-135.8961 74.33688,-159.3875 57.60578,-20.96679 120.59849,3.30078 150.18554,54.64597 -2.44111,-6.67501 -5.43153,-13.26177 -9.10733,-19.62843 z" />
    <path
       style="fill:#0080ff;fill-opacity:1;stroke:none"
       id="path4172"
       d="m 611.83762,285.40781 c -23.4914,-64.54208 -94.87964,-97.7914 -159.42172,-74.3 -64.54209,23.4914 -97.80875,94.83198 -74.31735,159.37407 -11.9269,-67.64079 33.2441,-132.13069 100.88489,-144.05758 60.37146,-10.64512 118.19315,24.19234 138.41471,79.89522 -1.24492,-6.9975 -3.04614,-14.00347 -5.56053,-20.91171 z" />
    <path
       style="fill:#0000ff;fill-opacity:1;stroke:none"
       id="path4174"
       d="m 623.05955,327.28864 c -11.92689,-67.64078 -76.4569,-112.7814 -144.09768,-100.85451 -67.64079,11.9269 -112.79022,76.40696 -100.86332,144.04775 0,-68.68426 55.6833,-124.35055 124.36756,-124.35055 61.30279,0 112.19658,44.34883 122.43822,102.7169 -0.0109,-7.10737 -0.56819,-14.31968 -1.84478,-21.55959 z" />
    <path
       style="fill:#8000ff;fill-opacity:1;stroke:none"
       id="path4176"
       d="m 626.83847,370.48188 c 0,-68.68426 -55.71106,-124.34461 -124.39532,-124.34461 -68.68425,0 -124.3446,55.66035 -124.3446,124.34461 11.92689,-67.64079 76.43059,-112.79208 144.07138,-100.86518 60.37146,10.64512 102.79097,63.1578 102.7415,122.41757 1.22345,-7.00129 1.92704,-14.2008 1.92704,-21.55239 z" />
    <path
       style="fill:#ff00ff;fill-opacity:1;stroke:none"
       id="path4178"
       d="m 623.05955,413.67511 c 11.9269,-67.64078 -33.27247,-132.12965 -100.91326,-144.05655 -67.64078,-11.92689 -132.12085,33.22253 -144.04774,100.86332 23.4914,-64.54209 94.85558,-97.80648 159.39767,-74.31508 57.60578,20.96679 90.2621,80.04776 79.92304,138.39865 2.42062,-6.68247 4.3637,-13.65043 5.64029,-20.89034 z" />
    <path
       style="fill:#ff0080;fill-opacity:1;stroke:none"
       id="path4180"
       d="m 611.83762,455.55594 c 23.4914,-64.54208 -9.82292,-135.90001 -74.365,-159.39141 -64.54209,-23.4914 -135.88267,9.77526 -159.37407,74.31735 34.34212,-59.48231 110.39843,-79.84908 169.88073,-45.50695 53.08978,30.65139 74.99068,94.5055 54.67617,150.17455 3.54424,-6.16061 6.66778,-12.6853 9.18217,-19.59354 z" />
  </g>
  <g
     id="g4182"
     transform="matrix(-1.5073662,-2.6125325,2.6108348,-1.5083463,353.66598,2296.6098)">
    <path
       style="fill:#ff0000;fill-opacity:1;stroke:none"
       id="path4184"
       d="m 378.09855,121.74195 c -68.68426,0 -124.34461,55.71107 -124.34461,124.39532 0,68.68426 55.66035,124.34461 124.34461,124.34461 -67.64079,-11.9269 -112.79208,-76.4306 -100.86518,-144.07138 10.64511,-60.37147 63.1578,-102.79097 122.41757,-102.74151 -7.00129,-1.22344 -14.2008,-1.92704 -21.55239,-1.92704 z" />
    <path
       style="fill:#ff8000;fill-opacity:1;stroke:none"
       id="path4186"
       d="m 421.29178,125.52087 c -67.64079,-11.92689 -132.12966,33.27248 -144.05655,100.91326 -11.9269,67.64079 33.22253,132.12085 100.86332,144.04775 -64.54209,-23.4914 -97.80648,-94.85558 -74.31508,-159.39767 20.96679,-57.60578 80.04775,-90.26211 138.39864,-79.92304 -6.68247,-2.42062 -13.65043,-4.36371 -20.89033,-5.6403 z" />
    <path
       style="fill:#ffff00;fill-opacity:1;stroke:none"
       id="path4188"
       d="m 463.17261,136.74281 c -64.54209,-23.4914 -135.90001,9.82291 -159.39141,74.365 -23.4914,64.54209 9.77526,135.88267 74.31735,159.37407 -59.48231,-34.34213 -79.84908,-110.39843 -45.50696,-169.88074 30.6514,-53.08977 94.50551,-74.99067 150.17456,-54.67616 -6.16062,-3.54424 -12.6853,-6.66778 -19.59354,-9.18217 z" />
    <path
       style="fill:#80ff00;fill-opacity:1;stroke:none"
       id="path4190"
       d="M 502.46851,155.06678 C 442.9862,120.72466 366.92739,141.14168 332.58526,200.62399 298.24313,260.1063 318.61624,336.13975 378.09855,370.48188 325.48335,326.33249 318.63304,247.895 362.78243,195.27981 c 39.40467,-46.96066 106.09174,-57.44069 157.38748,-27.76797 -5.45157,-4.56018 -11.33474,-8.76926 -17.7014,-12.44506 z" />
    <path
       style="fill:#00ff00;fill-opacity:1;stroke:none"
       id="path4192"
       d="M 537.98549,179.93604 C 485.3703,135.78665 406.92161,142.68602 362.77222,195.30121 318.62284,247.9164 325.48335,326.33249 378.09855,370.48188 333.94916,317.86669 340.82344,239.4313 393.43863,195.28191 c 46.96067,-39.40468 114.45445,-38.1454 159.81827,-0.0161 -4.57688,-5.43756 -9.63977,-10.6043 -15.27141,-15.32981 z" />
    <path
       style="fill:#00ff80;fill-opacity:1;stroke:none"
       id="path4194"
       d="M 568.64438,210.59494 C 524.495,157.97975 446.04006,151.15182 393.42487,195.30121 340.80968,239.4506 333.94916,317.86669 378.09855,370.48188 343.75642,310.99957 364.14643,234.9495 423.62874,200.60737 c 53.08977,-30.6514 119.3395,-17.69108 157.39306,27.73633 -3.56313,-6.14971 -7.65191,-12.11712 -12.37742,-17.74876 z" />
    <path
       style="fill:#00ffff;fill-opacity:1;stroke:none"
       id="path4196"
       d="m 593.51364,246.11192 c -34.34213,-59.48231 -110.4195,-79.83006 -169.90181,-45.48793 -59.48231,34.34212 -79.85541,110.37558 -45.51328,169.85789 -23.4914,-64.54209 9.7948,-135.8961 74.33688,-159.3875 57.60578,-20.96679 120.59849,3.30078 150.18554,54.64597 -2.44111,-6.67501 -5.43153,-13.26177 -9.10733,-19.62843 z" />
    <path
       style="fill:#0080ff;fill-opacity:1;stroke:none"
       id="path4198"
       d="m 611.83762,285.40781 c -23.4914,-64.54208 -94.87964,-97.7914 -159.42172,-74.3 -64.54209,23.4914 -97.80875,94.83198 -74.31735,159.37407 -11.9269,-67.64079 33.2441,-132.13069 100.88489,-144.05758 60.37146,-10.64512 118.19315,24.19234 138.41471,79.89522 -1.24492,-6.9975 -3.04614,-14.00347 -5.56053,-20.91171 z" />
    <path
       style="fill:#0000ff;fill-opacity:1;stroke:none"
       id="path4200"
       d="m 623.05955,327.28864 c -11.92689,-67.64078 -76.4569,-112.7814 -144.09768,-100.85451 -67.64079,11.9269 -112.79022,76.40696 -100.86332,144.04775 0,-68.68426 55.6833,-124.35055 124.36756,-124.35055 61.30279,0 112.19658,44.34883 122.43822,102.7169 -0.0109,-7.10737 -0.56819,-14.31968 -1.84478,-21.55959 z" />
    <path
       style="fill:#8000ff;fill-opacity:1;stroke:none"
       id="path4202"
       d="m 626.83847,370.48188 c 0,-68.68426 -55.71106,-124.34461 -124.39532,-124.34461 -68.68425,0 -124.3446,55.66035 -124.3446,124.34461 11.92689,-67.64079 76.43059,-112.79208 144.07138,-100.86518 60.37146,10.64512 102.79097,63.1578 102.7415,122.41757 1.22345,-7.00129 1.92704,-14.2008 1.92704,-21.55239 z" />
    <path
       style="fill:#ff00ff;fill-opacity:1;stroke:none"
       id="path4204"
       d="m 623.05955,413.67511 c 11.9269,-67.64078 -33.27247,-132.12965 -100.91326,-144.05655 -67.64078,-11.92689 -132.12085,33.22253 -144.04774,100.86332 23.4914,-64.54209 94.85558,-97.80648 159.39767,-74.31508 57.60578,20.96679 90.2621,80.04776 79.92304,138.39865 2.42062,-6.68247 4.3637,-13.65043 5.64029,-20.89034 z" />
    <path
       style="fill:#ff0080;fill-opacity:1;stroke:none"
       id="path4206"
       d="m 611.83762,455.55594 c 23.4914,-64.54208 -9.82292,-135.90001 -74.365,-159.39141 -64.54209,-23.4914 -135.88267,9.77526 -159.37407,74.31735 34.34212,-59.48231 110.39843,-79.84908 169.88073,-45.50695 53.08978,30.65139 74.99068,94.5055 54.67617,150.17455 3.54424,-6.16061 6.66778,-12.6853 9.18217,-19.59354 z" />
  </g>
</svg>
